# xmcd
# 
# Track frame offsets:
#     183
#     19950
#     35685
#     46708
#     63518
#     78400
#     94025
#     111343
#     128138
#     144183
#     158583
#     179295
#     198833
#     210495
#     227038
#     243570
#     258318
#     274818
#     289403
#     306798
# 
# Disc length: 4253
# 
# Revision: 4
# Processed by: cddbd v1.5.2PL0 Copyright (c) Steve Scherf et al.
# Submitted via: fre:ac v1.0.31
# 
DISCID=18109b14
DTITLE=Kris Kristofferson - The Man and his songs
DYEAR=0
DGENRE=Country
TTITLE0=Me and Bobby McGee
TTITLE1=Why me
TTITLE2=Help me make it through the night
TTITLE3=Easter Island
TTITLE4=The taker
TTITLE5=For the good times
TTITLE6=Lovin' her was easier (than anything I'll ever do again)
TTITLE7=Rain (with Rita)
TTITLE8=Who's to bless and who's to blame
TTITLE9=Stranger
TTITLE10=Sunday Mornin' Comin' Down
TTITLE11=The silver tongued devil and I
TTITLE12=Jesus was a Capricorn
TTITLE13=I got a life of my own
TTITLE14=Border Lord
TTITLE15=Josie
TTITLE16=You show me yours (and I'll show you mine)
TTITLE17=The Pilgrim: Chapter 33
TTITLE18=Spooky lady's revenge
TTITLE19=Breakdown (a long way from home)
EXTD=
EXTT0=
EXTT1=
EXTT2=
EXTT3=
EXTT4=
EXTT5=
EXTT6=
EXTT7=
EXTT8=
EXTT9=
EXTT10=
EXTT11=
EXTT12=
EXTT13=
EXTT14=
EXTT15=
EXTT16=
EXTT17=
EXTT18=
EXTT19=
PLAYORDER=
